<svg xmlns="http://www.w3.org/2000/svg" width="38" height="38" fill="none">
    <g clip-path="url(#a)">
      <path fill="#000" d="M38 19C38 8.50547 29.4945 0 19 0 8.50547 0 0 8.50547 0 19c0 8.9062 6.13789 16.3875 14.4133 18.4434V24.8039h-3.9188V19h3.9188v-2.5012c0-6.4644 2.9242-9.46286 9.2773-9.46286 1.2024 0 3.2805.2375 4.134.475v5.25466c-.4453-.0445-1.2246-.0742-2.1969-.0742-3.1172 0-4.3195 1.1801-4.3195 4.2453V19h6.2047l-1.0688 5.8039h-5.1433V37.859C30.7117 36.7234 38 28.7152 38 19Z"/>
    </g>
    <defs>
      <clipPath id="a">
        <path fill="#fff" d="M0 0h38v38H0z"/>
      </clipPath>
    </defs>
  </svg>