<svg xmlns="http://www.w3.org/2000/svg" width="35" height="37" fill="none">
    <g clip-path="url(#a)">
      <path fill="#000" d="M17.5078 10.1904c-4.9687 0-8.97655 3.7072-8.97655 8.3033s4.00785 8.3033 8.97655 8.3033c4.9688 0 8.9766-3.7072 8.9766-8.3033s-4.0078-8.3033-8.9766-8.3033Zm0 13.7015c-3.2109 0-5.8359-2.4209-5.8359-5.3982s2.6172-5.3982 5.8359-5.3982c3.2188 0 5.836 2.4209 5.836 5.3982s-2.625 5.3982-5.836 5.3982ZM28.9453 9.85073c0 1.07677-.9375 1.93677-2.0937 1.93677-1.1641 0-2.0938-.8672-2.0938-1.93677 0-1.06953.9375-1.93672 2.0938-1.93672 1.1562 0 2.0937.86719 2.0937 1.93672Zm5.9453 1.96567c-.1328-2.59438-.7734-4.89243-2.8281-6.78579-2.0469-1.89335-4.5312-2.48593-7.3359-2.61601-2.8907-.15176-11.5547-.15176-14.4454 0C7.48438 2.53745 5 3.13003 2.94531 5.02339.890625 6.91675.257812 9.21479.117187 11.8091c-.164062 2.6739-.164062 10.6881 0 13.3619C.25 27.7654.890625 30.0634 2.94531 31.9568 5 33.8501 7.47656 34.4427 10.2812 34.5728c2.8907.1518 11.5547.1518 14.4454 0 2.8047-.1229 5.289-.7154 7.3359-2.616 2.0469-1.8934 2.6875-4.1914 2.8281-6.7858.1641-2.6738.1641-10.6808 0-13.3546ZM31.1562 28.04c-.6093 1.4164-1.789 2.5076-3.3281 3.0785-2.3047.8455-7.7734.6504-10.3203.6504s-8.02342.1879-10.3203-.6504c-1.53125-.5637-2.71094-1.6549-3.32812-3.0785-.91407-2.1318-.70313-7.1904-.70313-9.5463s-.20312-7.4217.70313-9.54629c.60937-1.4164 1.78906-2.50762 3.32812-3.07851 2.30469-.84551 7.7734-.65039 10.3203-.65039s8.0235-.1879 10.3203.65039c1.5313.56367 2.711 1.65488 3.3281 3.07851.9141 2.13179.7032 7.19039.7032 9.54629 0 2.3559.2109 7.4217-.7032 9.5463Z"/>
    </g>
    <defs>
      <clipPath id="a">
        <path fill="#fff" d="M0 0h35v37H0z"/>
      </clipPath>
    </defs>
  </svg>