<?xml version="1.0" encoding="UTF-8"?>
<svg id="Lag_3" data-name="Lag 3" xmlns="http://www.w3.org/2000/svg" version="1.1" viewBox="0 0 996.7 73.3">
  <defs>
    <style>
      .cls-1 {
        fill: #fff;
        stroke-width: 0px;
      }
    </style>
  </defs>
  <path class="cls-1" d="M0,73.3V0h996.7v73.3c-2.9,0-8,0-11,0-2.9,0-8,0-11,0,0-1.3,0-2.4,0-3.1,0-.4,0-.7,0-1.1,0-1-.2-1.8-.4-2.7-.9-4.9-3.2-9.5-3.2-9.5-3.2-6.3-7.6-10.2-10.3-12.5-2.7-2.3-6.4-5.4-12.2-7.6,0,0-6.9-2.6-15.7-2.3-3.1,0-6.1.6-6.1.6s-.3,0-.5,0c-7.1,1.3-13.2,5-13.2,5-.9.6-2.4,1.5-4,2.8-1.9,1.5-4.6,3.9-7.2,7.4-1.8,2.4-6.2,8.4-7.4,17.1-.3,2.4-.3,4.4-.3,5.8h-43.9c0-1.8,0-4.2-.6-7-.3-1.6-1.1-5.3-3.2-9.5-3.2-6.3-7.5-10.1-10.3-12.5-2.7-2.3-6.4-5.4-12.2-7.6,0,0-6.9-2.6-15.7-2.3-3.1,0-6.1.6-6.1.6s-.3,0-.5,0c-7.1,1.3-13.2,5-13.2,5-.9.6-2.4,1.5-4,2.8-1.9,1.5-4.6,3.9-7.2,7.4-1.8,2.4-6.2,8.4-7.4,17.1-.3,2.4-.3,4.4-.3,5.8-14.6,0-29.3,0-43.9,0,0-1.8,0-4.2-.6-7-.3-1.6-1.1-5.3-3.2-9.5-3.2-6.3-7.5-10.1-10.3-12.5-2.7-2.3-6.4-5.4-12.2-7.6,0,0-6.9-2.6-15.7-2.3-3.1,0-6.1.6-6.1.6s-.3,0-.5,0c-7.1,1.3-13.2,5-13.2,5-.9.6-2.4,1.5-4,2.8-1.9,1.5-4.6,3.9-7.2,7.4-1.8,2.4-6.2,8.4-7.4,17.1-.3,2.4-.3,4.4-.3,5.8h-43.9c0-1.8,0-4.2-.6-7-.3-1.6-1.1-5.3-3.2-9.5-3.2-6.3-7.5-10.1-10.3-12.5-2.7-2.3-6.4-5.4-12.2-7.6,0,0-6.9-2.6-15.7-2.3-3.1,0-6.1.6-6.1.6s-.3,0-.5,0c-7.1,1.3-13.2,5-13.2,5-.9.6-2.4,1.5-4,2.8-1.9,1.5-4.6,3.9-7.2,7.4-1.8,2.4-6.2,8.4-7.4,17.1-.3,2.4-.3,4.4-.3,5.8-14.6,0-29.3,0-43.9,0,0-1.8,0-4.2-.6-7-.3-1.6-1.1-5.3-3.2-9.5-3.2-6.3-7.5-10.1-10.3-12.5-2.7-2.3-6.4-5.4-12.2-7.6,0,0-6.9-2.6-15.7-2.3-3.1,0-6.1.6-6.1.6s-.3,0-.5,0c-7.1,1.3-13.2,5-13.2,5-.9.6-2.4,1.5-4,2.8-1.9,1.5-4.6,3.9-7.2,7.4-1.8,2.4-6.2,8.4-7.4,17.1-.3,2.4-.3,4.4-.3,5.8h-43.9c0-.9,0-2,0-3.2,0,0-.1-1.9-.5-3.8-.9-4.9-3.2-9.5-3.2-9.5-3.2-6.3-7.6-10.2-10.3-12.5-2.7-2.3-6.4-5.4-12.2-7.6,0,0-6.9-2.6-15.7-2.3-3.1,0-6.1.6-6.1.6s-.3,0-.5,0c-7.1,1.3-13.2,5-13.2,5-.9.6-2.4,1.5-4,2.8-1.9,1.5-4.6,3.9-7.2,7.4-1.8,2.4-6.2,8.4-7.4,17.1-.3,2.4-.3,4.4-.3,5.8-14.6,0-29.3,0-43.9,0,0-1.8,0-4.2-.6-7-.3-1.6-1.1-5.3-3.2-9.5-3.2-6.3-7.5-10.1-10.3-12.5-2.7-2.3-6.4-5.4-12.2-7.6,0,0-6.9-2.6-15.7-2.3-3.1,0-6.1.6-6.1.6s-.3,0-.5,0c-7.1,1.3-13.2,5-13.2,5-.9.6-2.4,1.5-4,2.8-1.9,1.5-4.6,3.9-7.2,7.4-1.8,2.4-6.2,8.4-7.4,17.1-.3,2.4-.3,4.4-.3,5.8h-44.2c.1-1.7.2-4.1-.3-7-.1-.9-.8-4.8-3.2-9.5-3.3-6.4-7.7-10.2-10.3-12.5-2.7-2.3-6.4-5.4-12.2-7.6,0,0-6.9-2.6-15.7-2.3-3.1,0-6.1.6-6.1.6s-.3,0-.5,0c-7.1,1.3-13.2,5-13.2,5-.9.6-2.4,1.5-4,2.8-1.9,1.5-4.6,3.9-7.2,7.4-1.8,2.4-6.2,8.4-7.4,17.1-.3,2.4-.3,4.4-.3,5.8H0Z"/>
</svg>